<svg width="25" height="25" viewBox="0 0 25 25" fill="none" xmlns="http://www.w3.org/2000/svg">
<path d="M17.7466 3.06378C18.0092 2.80113 18.321 2.59279 18.6642 2.45065C19.0074 2.30851 19.3751 2.23535 19.7466 2.23535C20.118 2.23535 20.4858 2.30851 20.829 2.45065C21.1721 2.59279 21.4839 2.80113 21.7466 3.06378C22.0092 3.32642 22.2176 3.63823 22.3597 3.98139C22.5019 4.32455 22.575 4.69234 22.575 5.06378C22.575 5.43521 22.5019 5.80301 22.3597 6.14617C22.2176 6.48933 22.0092 6.80114 21.7466 7.06378L8.24658 20.5638L2.74658 22.0638L4.24658 16.5638L17.7466 3.06378Z" stroke="black" stroke-width="2" stroke-linecap="round" stroke-linejoin="round"/>
</svg>
