<svg width="24" height="25" viewBox="0 0 24 25" fill="none" xmlns="http://www.w3.org/2000/svg">
<path d="M14 2.66666H6C5.46957 2.66666 4.96086 2.87738 4.58579 3.25245C4.21071 3.62752 4 4.13623 4 4.66666V20.6667C4 21.1971 4.21071 21.7058 4.58579 22.0809C4.96086 22.456 5.46957 22.6667 6 22.6667H18C18.5304 22.6667 19.0391 22.456 19.4142 22.0809C19.7893 21.7058 20 21.1971 20 20.6667V8.66666L14 2.66666Z" stroke="#1E1E1E" stroke-width="2" stroke-linecap="round" stroke-linejoin="round"/>
<path d="M14 2.66666V8.66666H20" stroke="#1E1E1E" stroke-width="2" stroke-linecap="round" stroke-linejoin="round"/>
<path d="M16 13.6667H8" stroke="#1E1E1E" stroke-width="2" stroke-linecap="round" stroke-linejoin="round"/>
<path d="M16 17.6667H8" stroke="#1E1E1E" stroke-width="2" stroke-linecap="round" stroke-linejoin="round"/>
<path d="M10 9.66666H9H8" stroke="#1E1E1E" stroke-width="2" stroke-linecap="round" stroke-linejoin="round"/>
</svg>
