<svg width="24" height="25" viewBox="0 0 24 25" fill="none" xmlns="http://www.w3.org/2000/svg">
<path d="M15 7.66666H18C18.6566 7.66666 19.3068 7.79599 19.9134 8.04727C20.52 8.29854 21.0712 8.66684 21.5355 9.13113C21.9998 9.59542 22.3681 10.1466 22.6194 10.7532C22.8707 11.3599 23 12.0101 23 12.6667C23 13.3233 22.8707 13.9735 22.6194 14.5801C22.3681 15.1867 21.9998 15.7379 21.5355 16.2022C21.0712 16.6665 20.52 17.0348 19.9134 17.2861C19.3068 17.5373 18.6566 17.6667 18 17.6667H15M9 17.6667H6C5.34339 17.6667 4.69321 17.5373 4.08658 17.2861C3.47995 17.0348 2.92876 16.6665 2.46447 16.2022C1.52678 15.2645 1 13.9927 1 12.6667C1 11.3406 1.52678 10.0688 2.46447 9.13113C3.40215 8.19345 4.67392 7.66666 6 7.66666H9" stroke="#1E1E1E" stroke-width="2" stroke-linecap="round" stroke-linejoin="round"/>
<path d="M8 12.6667H16" stroke="#1E1E1E" stroke-width="2" stroke-linecap="round" stroke-linejoin="round"/>
</svg>
